<svg version="1.1" viewBox="0 0 209 353" xmlns="http://www.w3.org/2000/svg"><g transform="translate(-268 -13.2)"><g transform="translate(124 -442)"><path d="m189 808 .683-11.2c.376-6.19.904-12.8 1.17-14.8 1.21-8.82 2.71-17.5 5.1-26 1.33-4.68 3.57-11.5 4.98-15.3s4.03-8.25 4.03-8.25 3-6.83 4.7-10c2.5-4.69 7.31-12.7 10.7-17.8s9.22-13.3 13-18.2 10.3-13 14.5-18 12.7-14.4 18.8-21c6.1-6.59 13.2-14.2 15.7-17 2.51-2.76 7.05-7.99 10.1-11.6s8.93-11.3 13.1-17c4.16-5.71 10-14.4 13-19.4s7.5-13 9.97-18 6.09-13 8.04-18 4.89-13.7 6.54-19.5c1.65-5.78 3.69-13.9 4.53-18 .843-4.12 2.01-10.5 2.6-14.1.588-3.62 1.51-13.1 2.05-21 .541-7.93.991-15.4.999-16.7l.0148-2.25h-44.8l-.602 7.75c-.331 4.26-1.07 12.5-1.64 18.2-1.81 14.7-4.54 29.1-9.66 43-1.95 5.22-5.31 12.9-7.47 17-2.16 4.13-7.35 12.7-11.5 18.9-4.19 6.3-12 16.6-17.3 23-5.34 6.35-16.8 19.2-25.4 28.6-8.65 9.35-19.6 21.5-24.4 27s-10.3 12-12.2 14.5-5.81 7.65-8.54 11.5-7.49 11.1-10.6 16.1c-3.09 5.01-7.85 13.6-10.6 19-2.72 5.44-6.63 14.4-8.69 19.9s-4.54 12.7-5.53 16c-.989 3.3-2.5 8.93-3.36 12.5-.859 3.58-2.24 10.6-3.07 15.5s-1.97 13.7-2.53 19.4c-.565 5.7-1.03 13.7-1.03 17.8v7.39h44.7z" fill="#e75f1f"/><g fill="#2d323b"><path d="m256 783c-52.1-.0308-67.2-.326-70.7-1.38-2.7-.81-5.25-2.64-6.45-4.62-1.09-1.81-1.93-5.39-1.87-7.97s1.19-6.27 2.52-8.2 4.05-4.02 6.05-4.65c2.52-.789 20.9-1.14 60-1.14h56.4c4.81 7.51 20.6 18.9 21.1 27.4-.497.342-30.7.604-67.1.583z" stroke-width="1.21"/><path d="m249 731c-38.3-.0308-49.5-.326-52.1-1.38-1.99-.81-3.87-2.64-4.75-4.62-.8-1.81-1.42-5.39-1.38-7.97s.878-6.27 1.86-8.2c.98-1.93 2.98-4.02 4.45-4.65 1.85-.789 15.4-1.14 44.2-1.14h41.5c3.75 8.15 15.2 18.6 15.6 27.4-.366.342-22.6.604-49.4.583z" stroke-width="1.03"/><path d="m240 562c45.1-.0308 58.2-.326 61.2-1.38 2.34-.81 4.55-2.64 5.59-4.62.941-1.81 1.67-5.39 1.62-7.97-.0489-2.58-1.03-6.27-2.19-8.2s-3.51-4.02-5.24-4.65c-2.18-.789-18.1-1.14-52-1.14h-48.8c-4.3 7.84-17.8 18.8-18.3 27.4.43.342 26.6.604 58.1.583z" stroke-width="1.12"/><path d="m234 510c56.6-.0308 73-.326 76.8-1.38 2.94-.81 5.71-2.64 7.01-4.62 1.18-1.81 2.1-5.39 2.03-7.97s-1.3-6.27-2.74-8.2-4.4-4.02-6.57-4.65c-2.73-.789-22.8-1.14-65.2-1.14h-61.3c-5.13 7.31-22.4 19.1-23 27.4.54.342 33.4.604 72.9.583z" stroke-width="1.26"/></g><g transform="translate(127 438)"><path d="m181 370-.683-11.2c-.376-6.19-.904-12.8-1.17-14.8s-.981-6.65-1.58-10.5c-.601-3.85-2.18-10.8-3.51-15.5-1.33-4.68-3.57-11.5-4.98-15.3s-3.67-8.47-3.67-8.47-3.47-6.77-5.07-9.78c-2.5-4.69-7.31-12.7-10.7-17.8s-9.22-13.3-13-18.2-10.3-13-14.5-18-12.7-14.4-18.8-21c-6.1-6.59-13.2-14.2-15.7-17-2.51-2.76-7.05-7.99-10.1-11.6-3.04-3.64-8.93-11.3-13.1-17-4.16-5.71-10-14.4-13-19.4-3.01-4.95-7.5-13-9.97-18s-6.09-13-8.04-18-4.89-13.7-6.54-19.5c-1.65-5.78-3.69-13.9-4.53-18s-2.01-10.5-2.6-14.1c-.588-3.62-1.51-13.1-2.05-21-.541-7.93-.991-15.4-.999-16.7l-.0148-2.25h44.8l.602 7.75c.331 4.26 1.07 12.5 1.64 18.2s2.18 15.7 3.58 22 4.14 15.8 6.08 21c1.95 5.22 5.31 12.9 7.47 17 2.16 4.13 7.35 12.7 11.5 18.9s12 16.6 17.3 23c5.34 6.35 16.8 19.2 25.4 28.6 8.65 9.35 19.6 21.5 24.4 27s10.3 12 12.2 14.5 5.81 7.65 8.54 11.5 7.49 11.1 10.6 16.1c3.09 5.01 7.85 13.6 10.6 19 2.72 5.44 6.63 14.4 8.69 19.9s4.54 12.7 5.53 16c.989 3.3 2.5 8.93 3.36 12.5.859 3.58 2.24 10.6 3.07 15.5s1.97 13.7 2.53 19.4c.565 5.7 1.03 13.7 1.03 17.8v7.39c-14.9-.00032-29.8-3e-4-44.7-3e-4z" fill="#01a7d5"/></g></g></g></svg>
