<svg width="98" height="96" version="1.1" xmlns="http://www.w3.org/2000/svg"><path d="m48.9 0c-27 0-48.9 22-48.9 49.2 0 21.8 14 40.2 33.4 46.7 2.43.49 3.32-1.06 3.32-2.36 0-1.14-.08-5.05-.08-9.13-13.6 2.93-16.4-5.87-16.4-5.87-2.18-5.7-5.42-7.17-5.42-7.17-4.45-3.02.324-3.02.324-3.02 4.93.326 7.52 5.05 7.52 5.05 4.37 7.5 11.4 5.38 14.2 4.07.404-3.18 1.7-5.38 3.07-6.6-10.8-1.14-22.2-5.38-22.2-24.3 0-5.38 1.94-9.78 5.01-13.2-.485-1.22-2.18-6.28.486-13 0 0 4.12-1.3 13.4 5.05a47 47 0 0112.2-1.63c4.12 0 8.33.571 12.2 1.63 9.3-6.36 13.4-5.05 13.4-5.05 2.67 6.76.97 11.8.485 13 3.16 3.42 5.02 7.82 5.02 13.2 0 18.9-11.4 23.1-22.3 24.3 1.78 1.55 3.32 4.48 3.32 9.13 0 6.6-.08 11.9-.08 13.5 0 1.3.89 2.85 3.32 2.36 19.4-6.52 33.4-24.9 33.4-46.7.08-27.2-21.8-49.2-48.8-49.2z" clip-rule="evenodd" fill="#24292f" fill-rule="evenodd"/></svg>
