<svg width="372" height="223" fill="none" version="1.1" viewBox="0 0 372 223" xmlns="http://www.w3.org/2000/svg"><g transform="scale(6.89)" fill="none"><path d="m27 0c-7.2 0-11.7 3.6-13.5 10.8 2.7-3.6 5.85-4.95 9.45-4.05 2.05.513 3.52 2 5.15 3.65 2.65 2.69 5.71 5.8 12.4 5.8 7.2 0 11.7-3.6 13.5-10.8-2.7 3.6-5.85 4.95-9.45 4.05-2.05-.513-3.52-2-5.15-3.65-2.65-2.69-5.71-5.8-12.4-5.8zm-13.5 16.2c-7.2 0-11.7 3.6-13.5 10.8 2.7-3.6 5.85-4.95 9.45-4.05 2.05.514 3.52 2 5.15 3.65 2.65 2.69 5.71 5.8 12.4 5.8 7.2 0 11.7-3.6 13.5-10.8-2.7 3.6-5.85 4.95-9.45 4.05-2.05-.513-3.52-2-5.15-3.65-2.65-2.69-5.71-5.8-12.4-5.8z" clip-path="url(#clipPath373)" clip-rule="evenodd" fill="#38bdf8" fill-rule="evenodd"/></g></svg>
