<?xml version="1.0" encoding="UTF-8"?>
<svg version="1.1" viewBox="0 0 209.08 353.01" xmlns="http://www.w3.org/2000/svg">
<g transform="translate(-268.11 -13.214)">
<g transform="translate(123.86 -441.7)">
<path d="m166.68 807.92h22.353l0.68347-11.25c0.37591-6.1875 0.90355-12.825 1.1725-14.75s0.98102-6.65 1.5823-10.5c0.60131-3.85 2.1822-10.825 3.5132-15.5 1.3309-4.675 3.5711-11.549 4.9783-15.276s4.0325-8.25 4.0325-8.25 3.0039-6.8316 4.7041-10.002c2.495-4.6902 7.3112-12.678 10.702-17.75s9.2242-13.272 12.962-18.222c3.7378-4.95 10.277-13.05 14.532-18s12.73-14.392 18.833-20.983c6.1036-6.5908 13.151-14.241 15.66-17 2.5094-2.7593 7.049-7.994 10.088-11.633s8.9255-11.289 13.081-17c4.1556-5.7113 10.018-14.434 13.027-19.384s7.4959-13.05 9.9702-18c2.4743-4.95 6.0903-13.05 8.0355-18s4.8862-13.725 6.5355-19.5c1.6492-5.775 3.6885-13.875 4.5318-18 0.84323-4.125 2.0141-10.465 2.602-14.089 0.58787-3.6242 1.5116-13.074 2.0527-21 0.54112-7.9258 0.99052-15.423 0.99868-16.661l0.0148-2.25h-44.829l-0.60153 7.75c-0.33084 4.2625-1.0668 12.475-1.6355 18.25s-2.178 15.675-3.5762 22c-1.3982 6.325-4.1364 15.775-6.0849 20.999-1.9485 5.2244-5.3086 12.874-7.4668 17-2.1583 4.1256-7.3529 12.652-11.544 18.948-4.1906 6.296-11.985 16.646-17.32 23-5.3352 6.354-16.776 19.203-25.424 28.553-8.6478 9.35-19.62 21.5-24.383 27s-10.271 12.025-12.24 14.5-5.8123 7.65-8.5397 11.5-7.4889 11.102-10.581 16.115c-3.0922 5.0134-7.8498 13.563-10.572 19-2.7227 5.4366-6.6311 14.383-8.6853 19.881s-4.5445 12.698-5.5339 16c-0.98943 3.302-2.5022 8.9286-3.3616 12.504-0.85947 3.575-2.2391 10.55-3.0658 15.5s-1.9651 13.66-2.5298 19.356c-0.56466 5.6958-1.0267 13.683-1.0267 17.75v7.394z" fill="#e75f1f"/>
<g fill="#2d323b">
<path d="m256.25 782.87c-52.07-0.0308-67.174-0.32559-70.691-1.3798-2.7017-0.80981-5.2547-2.6403-6.4478-4.6231-1.0863-1.8054-1.9289-5.3922-1.8724-7.9708 0.0565-2.5786 1.1918-6.2682 2.5229-8.1992 1.3311-1.931 4.0537-4.0232 6.0502-4.6494 2.5154-0.78894 20.946-1.1386 60.02-1.1386h56.39l7.2982 8.25c4.014 4.5375 8.9758 10.558 11.026 13.378 2.0504 2.8205 3.3216 5.408 2.8248 5.75-0.49681 0.34198-30.702 0.60418-67.122 0.58265z" stroke-width="1.2053"/>
<path d="m248.56 731.45c-38.34-0.0308-49.462-0.32559-52.051-1.3798-1.9893-0.80981-3.8692-2.6403-4.7476-4.6231-0.7999-1.8054-1.4203-5.3922-1.3787-7.9708 0.0416-2.5786 0.87757-6.2682 1.8577-8.1992 0.98011-1.931 2.9848-4.0232 4.4549-4.6494 1.8521-0.78894 15.423-1.1386 44.194-1.1386h41.521l5.3738 8.25c2.9556 4.5375 6.6091 10.558 8.1189 13.378 1.5098 2.8205 2.4458 5.408 2.08 5.75-0.3658 0.34198-22.606 0.60418-49.423 0.58265z" stroke-width="1.0342"/>
<path d="m239.55 562.02c45.107-0.0308 58.191-0.32559 61.238-1.3798 2.3404-0.80981 4.552-2.6403 5.5855-4.6231 0.94107-1.8054 1.671-5.3922 1.622-7.9708-0.0489-2.5786-1.0324-6.2682-2.1855-8.1992-1.1531-1.931-3.5116-4.0232-5.2411-4.6494-2.179-0.78894-18.145-1.1386-51.994-1.1386h-48.849l-6.3222 8.25c-3.4772 4.5375-7.7755 10.558-9.5517 13.378-1.7762 2.8205-2.8774 5.408-2.447 5.75 0.43036 0.34198 26.596 0.60418 58.145 0.58265z" stroke-width="1.1218"/>
<path d="m233.63 509.74c56.58-0.0308 72.993-0.32559 76.814-1.3798 2.9357-0.80981 5.7099-2.6403 7.0063-4.6231 1.1804-1.8054 2.096-5.3922 2.0346-7.9708-0.0614-2.5786-1.2951-6.2682-2.7415-8.1992-1.4464-1.931-4.4048-4.0232-6.5743-4.6494-2.7333-0.78894-22.76-1.1386-65.219-1.1386h-61.275l-7.9303 8.25c-4.3617 4.5375-9.7533 10.558-11.981 13.378-2.228 2.8205-3.6093 5.408-3.0695 5.75 0.53982 0.34198 33.361 0.60418 72.936 0.58265z" stroke-width="1.2564"/>
</g>
<g transform="translate(127.25 437.92)">
<path d="m203.65 370h-22.353l-0.68347-11.25c-0.37591-6.1875-0.90355-12.825-1.1725-14.75s-0.98102-6.65-1.5823-10.5c-0.60131-3.85-2.1822-10.825-3.5132-15.5-1.3309-4.675-3.5711-11.549-4.9783-15.276s-3.6674-8.4691-3.6674-8.4691-3.4723-6.7674-5.0693-9.7826c-2.495-4.6902-7.3112-12.678-10.702-17.75s-9.2242-13.272-12.962-18.222c-3.7378-4.95-10.277-13.05-14.532-18s-12.73-14.392-18.833-20.983c-6.1036-6.5908-13.151-14.241-15.66-17-2.5094-2.7593-7.049-7.994-10.088-11.633-3.039-3.6387-8.9255-11.289-13.081-17-4.1556-5.7113-10.018-14.434-13.027-19.384-3.0093-4.95-7.4959-13.05-9.9702-18s-6.0903-13.05-8.0355-18-4.8862-13.725-6.5355-19.5c-1.6492-5.775-3.6885-13.875-4.5318-18s-2.0141-10.465-2.602-14.089c-0.58787-3.6242-1.5116-13.074-2.0527-21-0.54112-7.9258-0.99053-15.423-0.99868-16.661l-0.01483-2.25h44.829l0.60153 7.75c0.33084 4.2625 1.0668 12.475 1.6355 18.25s2.178 15.675 3.5762 22c1.3982 6.325 4.1364 15.775 6.0849 20.999 1.9485 5.2244 5.3086 12.874 7.4668 17 2.1583 4.1256 7.3529 12.652 11.543 18.948s11.985 16.646 17.32 23c5.3352 6.354 16.776 19.203 25.424 28.553 8.6478 9.35 19.62 21.5 24.383 27s10.271 12.025 12.24 14.5 5.8123 7.65 8.5397 11.5 7.4889 11.102 10.581 16.115c3.0922 5.0134 7.8498 13.563 10.572 19 2.7227 5.4366 6.6311 14.383 8.6853 19.881s4.5445 12.698 5.5339 16c0.98943 3.302 2.5022 8.9286 3.3616 12.504 0.85947 3.575 2.2391 10.55 3.0658 15.5s1.9651 13.66 2.5298 19.356c0.56466 5.6958 1.0267 13.683 1.0267 17.75v7.394z" fill="#01a7d5"/>
</g>
</g>
</g>
</svg>
